<svg version="1.2" xmlns="http://www.w3.org/2000/svg" viewBox="0 0 175 195" width="175" height="195">
	<title>THEMA_Logo</title>
	<style>
		.s0 { fill: #000000 } 
	</style>
	<g id="Lynx">
		<path id="Lynx 2 " fill-rule="evenodd" class="s0" d="m151.3 106.1c-8.3 58.5-63.3 70.5-63.3 70.5 0 0-35.3 11-69.2-14.5 0 0 27.1 9.7 52.9 2.4 25.8-7.3 22.2-53.1 19.1-55.3 0 0 4 11.4-5.1 26.5l-4.4-4.3 2.1 8.8c0 0-1.1 1.9-1.4 1.8l-5.8-6.3 1.9 9.5c0 0-2.4 3.8-9.5 5 0 0 0-31.9-19.8-34.1 0 0 6.6 3 5.8 4.1l-9.4 4.3c0 0-4.9 0.6-7.4-2 0 0-4.4-5.7-4.4-6.2 0-0.5 0.8-2.2 0.8-2.2 0 0 0.3-0.9-0.3-0.7-0.6 0.2-1.5 0.7-3.2 0.4 0 0-5-3.9-4.6-8.6 0 0-2.8 1.5-4.5-5.4 0 0 8.6-10.3 10.9-12.2 0 0 0-11.7 0.6-12.6 0 0 10.2-13.9 24-17.9 0 0 1.8-26.9 19.6-42.8 0 0-1.4 2.3 1.4 5.2 0 0-3.6-0.4-7.4 6l2.7 7.2-2.7 5.1 3.7-2.4 1.7 2.4-1.7 3 3.2-1.6c0 0 8.1 13.6 17 19.5 8.9 5.9 3.7 1.4 19.3 11.7l-4.3 2.3h7.5l4.1 2.9-4.1 2.2h6.9c0 0 2.4 0.9 2.7 1.7l9.1 7.7c0 0 5-32.3-20.1-60.1 0 0 43.1 25.8 35.6 79zm-101.6-27.2c3.4-6.7 3.3-8.8 3.2-8.8 0 0-0.3 0.9-1 2.1-0.7 1-1.4 1.8-1.9 2.2q-0.7 0.6-1.1 0.9c-2.1 1.6-4.3 2.8-7.5 4.6-0.2 0.1-0.8 0.4-1.4 1-1.3 1.2-1.8 2.7-2 3.8 0 0 0.7-0.5 1.8-0.8 0.4-0.1 0.5 0 0.5 0l0.8 0.5c3.9 2.5 6.4 1.3 6.4 1.3 3.1-1.9 2.2-6.8 2.2-6.8z"/>
		<g id="Pupil">
			<path id="Pupil 2 " class="s0" d="m43.3 82.7l0.9-0.7c0 0 3.2 3.1 2-1.4l2.7-2.5c0 0 1.5 9.8-5.6 4.6z"/>
		</g>
	</g>
</svg>